mtllib materials.mtl
v 0.27 0.1452174 -0.275
v 0.27 0.1452174 0.275
v 0.27 0.2130436 0.275
v 0.27 0.2130437 -0.2749999
v -0.27 0.1452174 -0.275
v -0.27 0.2130437 -0.2749999
v -0.27 0.2130436 0.275
v -0.27 0.1452174 0.275
v 0.27 -0.2347826 -0.275
v 0.27 -0.2347826 -0.195
v 0.27 0.1452174 -0.1949999
v 0.2700001 0.1452174 -0.2749999
v 0.19 -0.2347826 -0.275
v 0.1900001 0.1452174 -0.2749999
v 0.1900001 0.1452174 -0.1949999
v 0.19 -0.2347826 -0.195
v -0.1900001 -0.2347826 -0.275
v -0.1900001 -0.2347826 -0.1950001
v -0.1899999 0.1452174 -0.1949998
v -0.1899999 0.1452174 -0.2749999
v -0.2700001 -0.2347826 -0.2750001
v -0.2699999 0.1452175 -0.2749999
v -0.2699999 0.1452174 -0.1949999
v -0.2700001 -0.2347826 -0.1950001
v -0.1900001 -0.2347826 0.1949999
v -0.1900001 -0.2347826 0.2749999
v -0.1899999 0.1452174 0.2750001
v -0.1899999 0.1452174 0.1950001
v -0.2700001 -0.2347826 0.1949999
v -0.2699999 0.1452175 0.1950001
v -0.2699999 0.1452174 0.2750001
v -0.2700001 -0.2347826 0.2749999
v 0.2699999 -0.2347826 0.1949999
v 0.2699999 -0.2347826 0.2749999
v 0.27 0.1452174 0.2750001
v 0.2700001 0.1452174 0.1950001
v 0.1899999 -0.2347826 0.1949999
v 0.1900001 0.1452175 0.1950001
v 0.1900001 0.1452174 0.2750001
v 0.1899998 -0.2347826 0.2749999
vn 1 0 0
vn -1 0 0
vn 0 -1 -1.748456E-07
vn 0 1 1.748456E-07
vn 0 1.748456E-07 -1
vn 0 -1.748456E-07 1
vn 1 -1.748456E-07 1.748455E-07
vn -1 1.748456E-07 -1.748455E-07
vn -1.748455E-07 -1 -1.748456E-07
vn 1.748455E-07 1 1.748456E-07
vn 1.748456E-07 1.748456E-07 -1
vn -1.748456E-07 -1.748456E-07 1
vn 1 -5.245367E-07 5.245365E-07
vn -1 5.245367E-07 -5.245365E-07
vn -5.245365E-07 -1 -5.245368E-07
vn 5.245365E-07 1 5.245368E-07
vn 5.245367E-07 5.245366E-07 -1
vn -5.245367E-07 -5.245366E-07 1
vn 1 -5.245367E-07 5.245365E-07
vn -1 5.245367E-07 -5.245365E-07
vn -5.245365E-07 -1 -5.245368E-07
vn 5.245365E-07 1 5.245368E-07
vn 5.245367E-07 5.245366E-07 -1
vn -5.245367E-07 -5.245366E-07 1
vn 1 -5.245367E-07 5.245365E-07
vn -1 5.245367E-07 -5.245365E-07
vn -5.245365E-07 -1 -5.245368E-07
vn 5.245365E-07 1 5.245368E-07
vn 5.245367E-07 5.245366E-07 -1
vn -5.245367E-07 -5.245366E-07 1
vt 0.08044337 0.06788862
vt 0.1251987 0.03592052
vt 0.129141 0.04143976
vt 0.08438569 0.07340787
vt -0.08044337 0.06788862
vt -0.08438569 0.07340787
vt -0.129141 0.04143976
vt -0.1251987 0.03592052
vt 0.02919398 0.004439645
vt 0.01103181 -0.04641442
vt 0.0628276 -0.06491292
vt 0.08098977 -0.01405886
vt -0.02919398 0.004439645
vt -0.08098977 -0.01405886
vt -0.0628276 -0.06491292
vt -0.01103181 -0.04641442
vt -0.08497059 0.05813776
vt -0.09103716 0.06117105
vt -0.1151867 0.01287198
vt -0.1091201 0.009838695
vt 0.0849706 0.05813777
vt 0.1091201 0.009838698
vt 0.1151867 0.01287198
vt 0.09103715 0.06117105
vt 0.05835631 0.03696675
vt 0.06486618 0.03231684
vt 0.08695324 0.0632387
vt 0.08044337 0.06788861
vt -0.05835631 0.03696675
vt -0.08044337 0.06788861
vt -0.08695324 0.0632387
vt -0.06486617 0.03231684
vt 0.02919398 0.004439629
vt 0.02650328 -0.003094306
vt 0.03403721 -0.005784999
vt 0.03672791 0.001748936
vt -0.02919398 0.004439629
vt -0.03672791 0.001748935
vt -0.03403722 -0.005784999
vt -0.02650329 -0.003094306
vt -0.05098236 0.04114365
vt -0.08497059 0.05813777
vt -0.0885483 0.05098236
vt -0.05456007 0.03398823
vt 0.05098236 0.04114365
vt 0.05456007 0.03398823
vt 0.0885483 0.05098236
vt 0.08497059 0.05813777
vt 0.05835631 0.03696672
vt 0.06486618 0.03231681
vt 0.08695326 0.06323867
vt 0.08044339 0.06788857
vt -0.05835631 0.03696672
vt -0.0804434 0.06788858
vt -0.08695325 0.06323867
vt -0.06486618 0.03231681
vt 0.01372245 -0.03888052
vt 0.01103175 -0.04641446
vt 0.01856568 -0.04910515
vt 0.02125638 -0.04157122
vt -0.01372245 -0.03888052
vt -0.02125638 -0.04157122
vt -0.01856568 -0.04910515
vt -0.01103175 -0.04641446
vt -0.07155418 1.154525E-09
vt -0.1055424 0.01699414
vt -0.1091201 0.009838721
vt -0.07513189 -0.007155417
vt 0.07155418 4.118841E-09
vt 0.07513189 -0.007155415
vt 0.1091201 0.009838719
vt 0.1055424 0.01699414
vt 0.09660178 0.009648516
vt 0.1031116 0.00499861
vt 0.1251987 0.03592046
vt 0.1186889 0.04057037
vt -0.09660178 0.009648514
vt -0.1186889 0.04057038
vt -0.1251987 0.03592046
vt -0.1031116 0.004998608
vt 0.05798431 -0.05468835
vt 0.05529361 -0.06222228
vt 0.06282754 -0.06491298
vt 0.06551825 -0.05737904
vt -0.05798431 -0.05468835
vt -0.06551825 -0.05737904
vt -0.06282754 -0.06491298
vt -0.05529361 -0.06222228
vt -0.0715542 3.423029E-08
vt -0.1055424 0.01699417
vt -0.1091201 0.009838754
vt -0.07513191 -0.007155385
vt 0.0715542 3.719461E-08
vt 0.07513191 -0.007155382
vt 0.1091201 0.009838752
vt 0.1055424 0.01699417
vt 0.09660177 0.009648549
vt 0.1031116 0.004998644
vt 0.1251987 0.0359205
vt 0.1186888 0.0405704
vt -0.09660177 0.009648548
vt -0.1186888 0.04057042
vt -0.1251987 0.03592049
vt -0.1031116 0.004998641
vt 0.0734558 -0.01136823
vt 0.0707651 -0.01890216
vt 0.07829903 -0.02159286
vt 0.08098973 -0.01405892
vt -0.0734558 -0.01136823
vt -0.08098973 -0.01405892
vt -0.07829903 -0.02159286
vt -0.07076509 -0.01890216
vt -0.05098237 0.04114369
vt -0.0849706 0.05813782
vt -0.08854832 0.0509824
vt -0.05456008 0.03398827
vt 0.05098237 0.04114369
vt 0.05456008 0.03398827
vt 0.08854831 0.0509824
vt 0.0849706 0.05813782
o group1560433603
g mesh1560433603
usemtl mat20
f 4/4/1 3/3/1 2/2/1 1/1/1
f 8/8/2 7/7/2 6/6/2 5/5/2
f 2/12/3 8/11/3 5/10/3 1/9/3
f 6/16/4 7/15/4 3/14/4 4/13/4
f 5/20/5 6/19/5 4/18/5 1/17/5
f 3/24/6 7/23/6 8/22/6 2/21/6
o group618643285
g mesh618643285
usemtl mat20
f 12/28/7 11/27/7 10/26/7 9/25/7
f 16/32/8 15/31/8 14/30/8 13/29/8
f 10/36/9 16/35/9 13/34/9 9/33/9
f 14/40/10 15/39/10 11/38/10 12/37/10
f 13/44/11 14/43/11 12/42/11 9/41/11
f 11/48/12 15/47/12 16/46/12 10/45/12
o group1387487090
g mesh1387487090
usemtl mat20
f 20/52/13 19/51/13 18/50/13 17/49/13
f 24/56/14 23/55/14 22/54/14 21/53/14
f 18/60/15 24/59/15 21/58/15 17/57/15
f 22/64/16 23/63/16 19/62/16 20/61/16
f 21/68/17 22/67/17 20/66/17 17/65/17
f 19/72/18 23/71/18 24/70/18 18/69/18
o group665560839
g mesh665560839
usemtl mat20
f 28/76/19 27/75/19 26/74/19 25/73/19
f 32/80/20 31/79/20 30/78/20 29/77/20
f 26/84/21 32/83/21 29/82/21 25/81/21
f 30/88/22 31/87/22 27/86/22 28/85/22
f 29/92/23 30/91/23 28/90/23 25/89/23
f 27/96/24 31/95/24 32/94/24 26/93/24
o group1944677637
g mesh1944677637
usemtl mat20
f 36/100/25 35/99/25 34/98/25 33/97/25
f 40/104/26 39/103/26 38/102/26 37/101/26
f 34/108/27 40/107/27 37/106/27 33/105/27
f 38/112/28 39/111/28 35/110/28 36/109/28
f 37/116/29 38/115/29 36/114/29 33/113/29
f 35/120/30 39/119/30 40/118/30 34/117/30
