{
  "accessors": [
    {
      "name": "mesh1910128153_positions",
      "componentType": 5126,
      "count": 24,
      "min": [
        -0.25999999046325684,
        -0.06812512874603271,
        -0.37187498807907104
      ],
      "max": [
        0.25999999046325684,
        0.02187490090727806,
        0.18812499940395355
      ],
      "type": "VEC3",
      "bufferView": 0,
      "byteOffset": 0
    },
    {
      "name": "mesh1910128153_normals",
      "componentType": 5126,
      "count": 24,
      "min": [
        -1,
        -1,
        -1
      ],
      "max": [
        1,
        0.9922779202461243,
        1
      ],
      "type": "VEC3",
      "bufferView": 0,
      "byteOffset": 2592
    },
    {
      "name": "mesh1910128153_texcoords",
      "componentType": 5126,
      "count": 24,
      "min": [
        -0.1976684033870697,
        0.856201708316803
      ],
      "max": [
        0.20392939448356628,
        1.0706932544708252
      ],
      "type": "VEC2",
      "bufferView": 1,
      "byteOffset": 0
    },
    {
      "name": "mesh1910128153_0_indices",
      "componentType": 5123,
      "count": 36,
      "min": [
        0
      ],
      "max": [
        23
      ],
      "type": "SCALAR",
      "bufferView": 2,
      "byteOffset": 0
    },
    {
      "name": "mesh607223091_positions",
      "componentType": 5126,
      "count": 32,
      "min": [
        0.15000000596046448,
        -0.008125066757202148,
        0.11812499910593033
      ],
      "max": [
        0.25999999046325684,
        0.6118751168251038,
        0.18812499940395355
      ],
      "type": "VEC3",
      "bufferView": 0,
      "byteOffset": 288
    },
    {
      "name": "mesh607223091_normals",
      "componentType": 5126,
      "count": 32,
      "min": [
        -0.9615240097045898,
        -0.9899494051933289,
        -0.9945154786109924
      ],
      "max": [
        1,
        1,
        1
      ],
      "type": "VEC3",
      "bufferView": 0,
      "byteOffset": 2880
    },
    {
      "name": "mesh607223091_texcoords",
      "componentType": 5126,
      "count": 32,
      "min": [
        -0.26629000902175903,
        0.7474470138549805
      ],
      "max": [
        0.24101200699806213,
        1.0274434089660645
      ],
      "type": "VEC2",
      "bufferView": 1,
      "byteOffset": 192
    },
    {
      "name": "mesh607223091_0_indices",
      "componentType": 5123,
      "count": 36,
      "min": [
        0
      ],
      "max": [
        31
      ],
      "type": "SCALAR",
      "bufferView": 2,
      "byteOffset": 72
    },
    {
      "name": "mesh178814382_positions",
      "componentType": 5126,
      "count": 30,
      "min": [
        -0.25999999046325684,
        0.011874910444021225,
        0.11812499910593033
      ],
      "max": [
        -0.1599999964237213,
        0.6118748188018799,
        0.1881251037120819
      ],
      "type": "VEC3",
      "bufferView": 0,
      "byteOffset": 672
    },
    {
      "name": "mesh178814382_normals",
      "componentType": 5126,
      "count": 30,
      "min": [
        -1,
        -1,
        -0.9960377216339111
      ],
      "max": [
        1,
        1,
        1
      ],
      "type": "VEC3",
      "bufferView": 0,
      "byteOffset": 3264
    },
    {
      "name": "mesh178814382_texcoords",
      "componentType": 5126,
      "count": 30,
      "min": [
        -0.2774423062801361,
        0.8344634175300598
      ],
      "max": [
        0.2756674885749817,
        1.0679399967193604
      ],
      "type": "VEC2",
      "bufferView": 1,
      "byteOffset": 448
    },
    {
      "name": "mesh178814382_0_indices",
      "componentType": 5123,
      "count": 36,
      "min": [
        0
      ],
      "max": [
        29
      ],
      "type": "SCALAR",
      "bufferView": 2,
      "byteOffset": 144
    },
    {
      "name": "mesh1689365688_positions",
      "componentType": 5126,
      "count": 34,
      "min": [
        -0.1899999976158142,
        -0.008125066757202148,
        0.11812499910593033
      ],
      "max": [
        0.20000000298023224,
        0.6118751168251038,
        0.18812499940395355
      ],
      "type": "VEC3",
      "bufferView": 0,
      "byteOffset": 1032
    },
    {
      "name": "mesh1689365688_normals",
      "componentType": 5126,
      "count": 34,
      "min": [
        -1,
        -0.13093839585781097,
        -0.9956747889518738
      ],
      "max": [
        0.6622223258018494,
        0.4472140073776245,
        1
      ],
      "type": "VEC3",
      "bufferView": 0,
      "byteOffset": 3624
    },
    {
      "name": "mesh1689365688_texcoords",
      "componentType": 5126,
      "count": 34,
      "min": [
        -0.27731558680534363,
        0.8350446820259094
      ],
      "max": [
        0.2658716142177582,
        0.967788577079773
      ],
      "type": "VEC2",
      "bufferView": 1,
      "byteOffset": 688
    },
    {
      "name": "mesh1689365688_0_indices",
      "componentType": 5123,
      "count": 36,
      "min": [
        0
      ],
      "max": [
        33
      ],
      "type": "SCALAR",
      "bufferView": 2,
      "byteOffset": 216
    },
    {
      "name": "mesh1899120643_positions",
      "componentType": 5126,
      "count": 24,
      "min": [
        0.20999999344348907,
        -0.37812501192092896,
        -0.37187498807907104
      ],
      "max": [
        0.25999999046325684,
        -0.06812500953674316,
        -0.3218748867511749
      ],
      "type": "VEC3",
      "bufferView": 0,
      "byteOffset": 1440
    },
    {
      "name": "mesh1899120643_normals",
      "componentType": 5126,
      "count": 24,
      "min": [
        -1,
        -1,
        -1
      ],
      "max": [
        1,
        1,
        1
      ],
      "type": "VEC3",
      "bufferView": 0,
      "byteOffset": 4032
    },
    {
      "name": "mesh1899120643_texcoords",
      "componentType": 5126,
      "count": 24,
      "min": [
        -0.17486050724983215,
        0.8578290939331055
      ],
      "max": [
        0.17486050724983215,
        1.006524920463562
      ],
      "type": "VEC2",
      "bufferView": 1,
      "byteOffset": 960
    },
    {
      "name": "mesh1899120643_0_indices",
      "componentType": 5123,
      "count": 36,
      "min": [
        0
      ],
      "max": [
        23
      ],
      "type": "SCALAR",
      "bufferView": 2,
      "byteOffset": 288
    },
    {
      "name": "mesh1049402197_positions",
      "componentType": 5126,
      "count": 24,
      "min": [
        -0.25999999046325684,
        -0.3781251013278961,
        -0.37187498807907104
      ],
      "max": [
        -0.20999999344348907,
        -0.06812512874603271,
        -0.3218748867511749
      ],
      "type": "VEC3",
      "bufferView": 0,
      "byteOffset": 1728
    },
    {
      "name": "mesh1049402197_normals",
      "componentType": 5126,
      "count": 24,
      "min": [
        -1,
        -1,
        -1
      ],
      "max": [
        1,
        1,
        1
      ],
      "type": "VEC3",
      "bufferView": 0,
      "byteOffset": 4320
    },
    {
      "name": "mesh1049402197_texcoords",
      "componentType": 5126,
      "count": 24,
      "min": [
        -0.1958795040845871,
        0.857829213142395
      ],
      "max": [
        0.1958795040845871,
        1.0507868528366089
      ],
      "type": "VEC2",
      "bufferView": 1,
      "byteOffset": 1152
    },
    {
      "name": "mesh1049402197_0_indices",
      "componentType": 5123,
      "count": 36,
      "min": [
        0
      ],
      "max": [
        23
      ],
      "type": "SCALAR",
      "bufferView": 2,
      "byteOffset": 360
    },
    {
      "name": "mesh1676747274_positions",
      "componentType": 5126,
      "count": 24,
      "min": [
        -0.25999999046325684,
        -0.3781251013278961,
        0.13812489807605743
      ],
      "max": [
        -0.20999999344348907,
        -0.06812512874603271,
        0.18812499940395355
      ],
      "type": "VEC3",
      "bufferView": 0,
      "byteOffset": 2016
    },
    {
      "name": "mesh1676747274_normals",
      "componentType": 5126,
      "count": 24,
      "min": [
        -1,
        -1,
        -1
      ],
      "max": [
        1,
        1,
        1
      ],
      "type": "VEC3",
      "bufferView": 0,
      "byteOffset": 4608
    },
    {
      "name": "mesh1676747274_texcoords",
      "componentType": 5126,
      "count": 24,
      "min": [
        -0.1958795040845871,
        0.88747239112854
      ],
      "max": [
        0.1958795040845871,
        1.0679399967193604
      ],
      "type": "VEC2",
      "bufferView": 1,
      "byteOffset": 1344
    },
    {
      "name": "mesh1676747274_0_indices",
      "componentType": 5123,
      "count": 36,
      "min": [
        0
      ],
      "max": [
        23
      ],
      "type": "SCALAR",
      "bufferView": 2,
      "byteOffset": 432
    },
    {
      "name": "mesh1546392550_positions",
      "componentType": 5126,
      "count": 24,
      "min": [
        0.20999999344348907,
        -0.37812501192092896,
        0.13812510669231415
      ],
      "max": [
        0.25999999046325684,
        -0.06812500953674316,
        0.18812499940395355
      ],
      "type": "VEC3",
      "bufferView": 0,
      "byteOffset": 2304
    },
    {
      "name": "mesh1546392550_normals",
      "componentType": 5126,
      "count": 24,
      "min": [
        -1,
        -1,
        -1
      ],
      "max": [
        1,
        1,
        1
      ],
      "type": "VEC3",
      "bufferView": 0,
      "byteOffset": 4896
    },
    {
      "name": "mesh1546392550_texcoords",
      "componentType": 5126,
      "count": 24,
      "min": [
        -0.18890239298343658,
        0.8874722719192505
      ],
      "max": [
        0.18890239298343658,
        1.0236780643463135
      ],
      "type": "VEC2",
      "bufferView": 1,
      "byteOffset": 1536
    },
    {
      "name": "mesh1546392550_0_indices",
      "componentType": 5123,
      "count": 36,
      "min": [
        0
      ],
      "max": [
        23
      ],
      "type": "SCALAR",
      "bufferView": 2,
      "byteOffset": 504
    }
  ],
  "asset": {
    "generator": "obj2gltf",
    "version": "2.0"
  },
  "buffers": [
    {
      "name": "model",
      "byteLength": 7488,
      "uri": "data:application/octet-stream;base64,"
    }
  ],
  "bufferViews": [
    {
      "name": "bufferView_0",
      "buffer": 0,
      "byteLength": 5184,
      "byteOffset": 0,
      "byteStride": 12,
      "target": 34962
    },
    {
      "name": "bufferView_1",
      "buffer": 0,
      "byteLength": 1728,
      "byteOffset": 5184,
      "byteStride": 8,
      "target": 34962
    },
    {
      "name": "bufferView_2",
      "buffer": 0,
      "byteLength": 576,
      "byteOffset": 6912,
      "target": 34963
    }
  ],
  "materials": [
    {
      "name": "mat22",
      "pbrMetallicRoughness": {
        "baseColorFactor": [
          0.62,
          0.62,
          0.62,
          1
        ],
        "metallicFactor": 0,
        "roughnessFactor": 1
      },
      "emissiveFactor": [
        0,
        0,
        0
      ],
      "alphaMode": "OPAQUE",
      "doubleSided": false
    },
    {
      "name": "mat16",
      "pbrMetallicRoughness": {
        "baseColorFactor": [
          0.47,
          0.56,
          0.61,
          1
        ],
        "metallicFactor": 0,
        "roughnessFactor": 1
      },
      "emissiveFactor": [
        0,
        0,
        0
      ],
      "alphaMode": "OPAQUE",
      "doubleSided": false
    },
    {
      "name": "mat17",
      "pbrMetallicRoughness": {
        "baseColorFactor": [
          0.27,
          0.35,
          0.39,
          1
        ],
        "metallicFactor": 0,
        "roughnessFactor": 1
      },
      "emissiveFactor": [
        0,
        0,
        0
      ],
      "alphaMode": "OPAQUE",
      "doubleSided": false
    },
    {
      "name": "mat23",
      "pbrMetallicRoughness": {
        "baseColorFactor": [
          0.1,
          0.1,
          0.1,
          1
        ],
        "metallicFactor": 0,
        "roughnessFactor": 1
      },
      "emissiveFactor": [
        0,
        0,
        0
      ],
      "alphaMode": "OPAQUE",
      "doubleSided": false
    }
  ],
  "meshes": [
    {
      "name": "mesh1910128153",
      "primitives": [
        {
          "attributes": {
            "POSITION": 0,
            "NORMAL": 1,
            "TEXCOORD_0": 2
          },
          "indices": 3,
          "material": 0,
          "mode": 4
        }
      ]
    },
    {
      "name": "mesh607223091",
      "primitives": [
        {
          "attributes": {
            "POSITION": 4,
            "NORMAL": 5,
            "TEXCOORD_0": 6
          },
          "indices": 7,
          "material": 1,
          "mode": 4
        }
      ]
    },
    {
      "name": "mesh178814382",
      "primitives": [
        {
          "attributes": {
            "POSITION": 8,
            "NORMAL": 9,
            "TEXCOORD_0": 10
          },
          "indices": 11,
          "material": 1,
          "mode": 4
        }
      ]
    },
    {
      "name": "mesh1689365688",
      "primitives": [
        {
          "attributes": {
            "POSITION": 12,
            "NORMAL": 13,
            "TEXCOORD_0": 14
          },
          "indices": 15,
          "material": 2,
          "mode": 4
        }
      ]
    },
    {
      "name": "mesh1899120643",
      "primitives": [
        {
          "attributes": {
            "POSITION": 16,
            "NORMAL": 17,
            "TEXCOORD_0": 18
          },
          "indices": 19,
          "material": 3,
          "mode": 4
        }
      ]
    },
    {
      "name": "mesh1049402197",
      "primitives": [
        {
          "attributes": {
            "POSITION": 20,
            "NORMAL": 21,
            "TEXCOORD_0": 22
          },
          "indices": 23,
          "material": 3,
          "mode": 4
        }
      ]
    },
    {
      "name": "mesh1676747274",
      "primitives": [
        {
          "attributes": {
            "POSITION": 24,
            "NORMAL": 25,
            "TEXCOORD_0": 26
          },
          "indices": 27,
          "material": 3,
          "mode": 4
        }
      ]
    },
    {
      "name": "mesh1546392550",
      "primitives": [
        {
          "attributes": {
            "POSITION": 28,
            "NORMAL": 29,
            "TEXCOORD_0": 30
          },
          "indices": 31,
          "material": 3,
          "mode": 4
        }
      ]
    }
  ],
  "nodes": [
    {
      "name": "group1910128153",
      "mesh": 0
    },
    {
      "name": "group607223091",
      "mesh": 1
    },
    {
      "name": "group178814382",
      "mesh": 2
    },
    {
      "name": "group1689365688",
      "mesh": 3
    },
    {
      "name": "group1899120643",
      "mesh": 4
    },
    {
      "name": "group1049402197",
      "mesh": 5
    },
    {
      "name": "group1676747274",
      "mesh": 6
    },
    {
      "name": "group1546392550",
      "mesh": 7
    }
  ],
  "scene": 0,
  "scenes": [
    {
      "nodes": [
        0,
        1,
        2,
        3,
        4,
        5,
        6,
        7
      ]
    }
  ]
}
